<svg width="100" height="100" viewBox="0 0 100 100" fill="none" xmlns="http://www.w3.org/2000/svg">
<path d="M93.9637 16.5996H87.9275V34.7083H99.9999V22.6358C99.9999 19.3018 97.2977 16.5996 93.9637 16.5996Z" fill="#FFA436"/>
<path d="M93.9638 22.6358L75.8551 46.7806H0V10.5633C0 7.22931 2.70221 4.5271 6.03622 4.5271H35.4266C37.0282 4.5271 38.5634 5.16291 39.6962 6.29571L50 16.5995H87.9276C91.2616 16.5995 93.9638 19.3017 93.9638 22.6358Z" fill="#FFBC2B"/>
<path d="M87.9277 22.6357L75.8552 37.7263H93.9639V22.6357H87.9277Z" fill="#8AE7FF"/>
<path d="M87.9275 22.6357V52.8168L6.03613 28.672V22.6357H87.9275Z" fill="#BDF2FF"/>
<path d="M6.03613 28.6719H64.5734V46.7805H6.03613V28.6719Z" fill="white"/>
<path d="M93.9637 28.6719L87.9275 34.7081V95.4727H93.9637C97.2977 95.4727 99.9999 92.7705 99.9999 89.4365V34.7081C99.9999 31.3741 97.2977 28.6719 93.9637 28.6719Z" fill="#FFBC2B"/>
<path d="M93.9638 28.6719V89.4365C93.9638 92.7705 91.2616 95.4727 87.9276 95.4727H6.03622C2.70221 95.4727 0 92.7705 0 89.4365V46.7805C0 43.4465 2.70221 40.7443 6.03622 40.7443H50L60.3038 30.4405C61.4366 29.3077 62.9718 28.6719 64.5734 28.6719H93.9638Z" fill="#FFCF66"/>
</svg>
