<svg width="100" height="100" viewBox="0 0 100 100" fill="none" xmlns="http://www.w3.org/2000/svg">
<path d="M76.5625 95.3125H23.4375C20.9511 95.3125 18.5665 94.3248 16.8084 92.5666C15.0502 90.8085 14.0625 88.4239 14.0625 85.9375V14.0625C14.0625 11.5761 15.0502 9.19153 16.8084 7.43337C18.5665 5.67522 20.9511 4.6875 23.4375 4.6875H67.1875L85.9375 23.4375V85.9375C85.9375 88.4239 84.9498 90.8085 83.1916 92.5666C81.4335 94.3248 79.0489 95.3125 76.5625 95.3125Z" fill="#CFD2FC"/>
<path d="M14.0625 70.3125H85.9375V85.9375C85.9375 88.4239 84.9498 90.8085 83.1916 92.5666C81.4335 94.3248 79.0489 95.3125 76.5625 95.3125H23.4375C20.9511 95.3125 18.5665 94.3248 16.8084 92.5666C15.0502 90.8085 14.0625 88.4239 14.0625 85.9375V70.3125Z" fill="#5153FF"/>
<path d="M85.9375 23.4375H76.5625C74.0761 23.4375 71.6915 22.4498 69.9334 20.6916C68.1752 18.9335 67.1875 16.5489 67.1875 14.0625V4.6875L85.9375 23.4375Z" fill="#8690FA"/>
<path d="M50.0024 59.375H50C49.7329 59.375 49.4621 59.3697 49.1955 59.3593C48.9905 59.3514 48.7891 59.3031 48.6027 59.2172C48.4163 59.1314 48.2487 59.0097 48.1093 58.859C47.97 58.7084 47.8617 58.5318 47.7906 58.3393C47.7195 58.1468 47.6871 57.9422 47.6951 57.7372C47.703 57.5321 47.7513 57.3307 47.8372 57.1443C47.923 56.9579 48.0447 56.7903 48.1954 56.651C48.346 56.5116 48.5226 56.4033 48.7151 56.3323C48.9076 56.2612 49.1122 56.2287 49.3172 56.2367C49.5436 56.2455 49.7733 56.25 50.0008 56.25H50.003C50.6985 56.2499 51.3933 56.2083 52.0838 56.1252C52.4953 56.0755 52.9096 56.1913 53.2356 56.4471C53.5616 56.7029 53.7727 57.0777 53.8224 57.4891C53.8721 57.9006 53.7563 58.3149 53.5005 58.6409C53.2447 58.9669 52.8699 59.178 52.4584 59.2277C51.6434 59.3257 50.8233 59.3749 50.0024 59.375ZM43.3618 58.1662C43.1727 58.1662 42.9853 58.1317 42.8086 58.0644C41.7875 57.6774 40.7992 57.2085 39.8536 56.6623C39.6759 56.5596 39.5202 56.4229 39.3954 56.2601C39.2705 56.0973 39.179 55.9114 39.126 55.7132C39.0729 55.515 39.0595 55.3083 39.0863 55.1048C39.1132 54.9014 39.1799 54.7053 39.2826 54.5276C39.3852 54.3499 39.5219 54.1943 39.6847 54.0694C39.8476 53.9446 40.0334 53.853 40.2316 53.8C40.4299 53.747 40.6366 53.7335 40.84 53.7604C41.0434 53.7873 41.2396 53.8539 41.4172 53.9566C42.2166 54.4185 43.052 54.8149 43.9153 55.142C44.2575 55.2712 44.5436 55.5165 44.7236 55.835C44.9035 56.1535 44.966 56.5251 44.9002 56.885C44.8343 57.2449 44.6442 57.5702 44.3631 57.8043C44.082 58.0385 43.7276 58.1665 43.3618 58.1662ZM58.0483 57.5658C57.6934 57.5662 57.349 57.4458 57.0717 57.2244C56.7944 57.0031 56.6007 56.6939 56.5225 56.3478C56.4442 56.0017 56.4861 55.6393 56.6412 55.3202C56.7964 55.001 57.0555 54.7442 57.376 54.592C58.2091 54.1952 59.0089 53.7321 59.7678 53.2072C59.9364 53.0883 60.127 53.0041 60.3283 52.9592C60.5297 52.9144 60.738 52.9099 60.9411 52.9459C61.1443 52.982 61.3382 53.058 61.5119 53.1694C61.6855 53.2808 61.8353 53.4255 61.9527 53.5952C62.0702 53.7648 62.1528 53.956 62.1959 54.1578C62.239 54.3596 62.2418 54.5679 62.204 54.7707C62.1662 54.9735 62.0886 55.1668 61.9757 55.3395C61.8628 55.5122 61.7168 55.6608 61.5461 55.7767C60.649 56.3974 59.7034 56.9449 58.7184 57.4138C58.5087 57.514 58.2793 57.5659 58.0469 57.5658H58.0483ZM35.976 53.0691C35.7551 53.0695 35.5366 53.0228 35.3351 52.9323C35.1335 52.8418 34.9536 52.7095 34.8071 52.5441C34.0831 51.7284 33.4256 50.856 32.8409 49.9353C32.7276 49.7621 32.6498 49.5681 32.6121 49.3646C32.5744 49.1611 32.5776 48.9521 32.6213 48.7498C32.6651 48.5475 32.7486 48.3559 32.867 48.1861C32.9854 48.0164 33.1364 47.8718 33.3111 47.7609C33.4859 47.65 33.6809 47.5749 33.8849 47.5399C34.0889 47.505 34.2979 47.511 34.4995 47.5575C34.7012 47.604 34.8917 47.6901 35.0598 47.8108C35.2279 47.9316 35.3704 48.0845 35.4789 48.2607C35.9742 49.0401 36.531 49.7787 37.144 50.4693C37.3439 50.6945 37.4744 50.9726 37.52 51.2702C37.5655 51.5678 37.5241 51.8723 37.4008 52.1469C37.2774 52.4216 37.0773 52.6547 36.8245 52.8183C36.5717 52.9819 36.2771 53.069 35.976 53.0691ZM64.992 51.8869C64.7017 51.8867 64.4172 51.8056 64.1704 51.6528C63.9236 51.4999 63.7243 51.2814 63.5948 51.0216C63.4652 50.7618 63.4106 50.4711 63.4371 50.182C63.4636 49.8929 63.57 49.6169 63.7446 49.3849C64.2998 48.6468 64.7948 47.8652 65.2248 47.0478C65.4177 46.681 65.7484 46.4059 66.1442 46.2829C66.5399 46.1599 66.9683 46.1992 67.3351 46.3921C67.7019 46.5849 67.977 46.9156 68.1 47.3114C68.223 47.7071 68.1837 48.1355 67.9909 48.5023C67.4827 49.4682 66.8978 50.3916 66.2416 51.2636C66.096 51.4576 65.9072 51.6149 65.6901 51.7231C65.4731 51.8313 65.2338 51.8874 64.9912 51.8869H64.992ZM31.7936 45.1308C31.4444 45.1306 31.1054 45.0134 30.8306 44.7979C30.5558 44.5825 30.3611 44.2812 30.2776 43.9422C30.0168 42.8827 29.8417 41.8039 29.7539 40.7164C29.7349 40.5105 29.7569 40.303 29.8187 40.1057C29.8805 39.9084 29.9808 39.7254 30.1138 39.5672C30.2468 39.4089 30.4099 39.2787 30.5936 39.1839C30.7773 39.0892 30.978 39.0318 31.184 39.0152C31.3901 38.9985 31.5974 39.0229 31.7939 39.087C31.9904 39.151 32.1723 39.2534 32.329 39.3882C32.4857 39.5231 32.6141 39.6877 32.7067 39.8725C32.7993 40.0573 32.8543 40.2586 32.8686 40.4648C32.9431 41.3849 33.0913 42.2976 33.312 43.1939C33.3684 43.4241 33.3718 43.6642 33.3219 43.896C33.272 44.1277 33.1701 44.3451 33.0238 44.5316C32.8776 44.7182 32.6908 44.8691 32.4777 44.9729C32.2646 45.0767 32.0307 45.1307 31.7936 45.1308ZM68.5123 43.632C68.286 43.632 68.0624 43.583 67.8569 43.4882C67.6514 43.3934 67.4689 43.2551 67.3221 43.0829C67.1752 42.9107 67.0675 42.7087 67.0063 42.4908C66.9452 42.2729 66.932 42.0443 66.9678 41.8209C67.1142 40.9087 67.1877 39.9863 67.1875 39.0625V39.0207C67.1875 38.6063 67.3522 38.2088 67.6452 37.9158C67.9382 37.6228 68.3356 37.4582 68.75 37.4582C69.1644 37.4582 69.5619 37.6228 69.8549 37.9158C70.1479 38.2088 70.3125 38.6063 70.3125 39.0207V39.0625C70.3126 40.1527 70.2258 41.2413 70.053 42.3177C69.9942 42.6842 69.8069 43.0178 69.5245 43.2588C69.2422 43.4997 68.8833 43.6323 68.5121 43.6328L68.5123 43.632ZM31.7868 36.1584C31.55 36.1582 31.3163 36.1044 31.1034 36.0008C30.8905 35.8972 30.7039 35.7467 30.5576 35.5605C30.4113 35.3743 30.3092 35.1574 30.259 34.926C30.2088 34.6946 30.2117 34.4548 30.2676 34.2248C30.5272 33.1635 30.8723 32.1249 31.2996 31.1193C31.3799 30.9305 31.4966 30.7593 31.6431 30.6156C31.7895 30.4718 31.9629 30.3583 32.1532 30.2816C32.3435 30.2048 32.547 30.1663 32.7522 30.1682C32.9574 30.1701 33.1602 30.2124 33.3491 30.2927C33.5379 30.373 33.7091 30.4897 33.8528 30.6362C33.9966 30.7826 34.11 30.956 34.1868 31.1463C34.2635 31.3366 34.3021 31.5401 34.3001 31.7453C34.2982 31.9505 34.2559 32.1533 34.1756 32.3422C33.8145 33.1918 33.5228 34.0693 33.3034 34.966C33.2205 35.3058 33.026 35.608 32.7511 35.8242C32.4761 36.0404 32.1365 36.158 31.7868 36.1584ZM67.7774 34.6484C67.4501 34.6483 67.1311 34.5455 66.8654 34.3543C66.5997 34.1632 66.4007 33.8935 66.2965 33.5832C66.0022 32.7085 65.6376 31.859 65.2065 31.0429C65.1045 30.8611 65.04 30.6607 65.0167 30.4535C64.9934 30.2463 65.0118 30.0366 65.0708 29.8367C65.1298 29.6367 65.2282 29.4506 65.3602 29.2892C65.4923 29.1279 65.6553 28.9946 65.8396 28.8973C66.0239 28.7999 66.2259 28.7404 66.4336 28.7223C66.6413 28.7041 66.8505 28.7278 67.0489 28.7917C67.2473 28.8557 67.4309 28.9587 67.5889 29.0948C67.7469 29.2308 67.876 29.397 67.9688 29.5838C68.4786 30.5491 68.9097 31.554 69.2579 32.5886C69.3366 32.8237 69.3584 33.074 69.3213 33.3191C69.2843 33.5642 69.1896 33.797 69.0449 33.9982C68.9002 34.1995 68.7098 34.3635 68.4892 34.4766C68.2687 34.5898 68.0245 34.649 67.7766 34.6492L67.7774 34.6484ZM35.9496 28.2086C35.6488 28.2085 35.3544 28.1215 35.1017 27.9582C34.8491 27.7948 34.649 27.562 34.5255 27.2877C34.4019 27.0134 34.3602 26.7093 34.4053 26.4118C34.4504 26.1144 34.5804 25.8363 34.7797 25.6109C35.5025 24.7944 36.2892 24.0368 37.1323 23.3453C37.4531 23.086 37.8634 22.964 38.2738 23.0061C38.6841 23.0481 39.0612 23.2507 39.3227 23.5697C39.5843 23.8887 39.7091 24.2981 39.67 24.7088C39.6308 25.1194 39.4308 25.4979 39.1137 25.7617C38.3993 26.3476 37.7328 26.9895 37.1205 27.6814C36.974 27.8474 36.7938 27.9802 36.5919 28.0711C36.39 28.162 36.1711 28.2089 35.9496 28.2086ZM62.9629 27.0781C62.5604 27.0786 62.1732 26.9231 61.8828 26.6443C61.2153 26.0058 60.4977 25.4216 59.7371 24.8972C59.4036 24.6591 59.1769 24.2994 59.1061 23.8957C59.0352 23.492 59.1258 23.0766 59.3583 22.7391C59.5909 22.4016 59.9467 22.169 60.3492 22.0913C60.7516 22.0137 61.1684 22.0974 61.5098 22.3242C62.4078 22.9431 63.2549 23.6328 64.043 24.3867C64.2684 24.6024 64.4241 24.8806 64.49 25.1856C64.5559 25.4905 64.529 25.8082 64.4128 26.0977C64.2965 26.3872 64.0963 26.6353 63.8378 26.8101C63.5794 26.9848 63.2745 27.0781 62.9625 27.0781H62.9629ZM43.3241 23.0988C42.9586 23.0991 42.6045 22.9712 42.3236 22.7374C42.0426 22.5037 41.8525 22.1788 41.7863 21.8194C41.72 21.4599 41.7819 21.0886 41.9612 20.7701C42.1404 20.4516 42.4256 20.2059 42.7672 20.0759C43.7875 19.6872 44.8376 19.3818 45.9073 19.1627C46.3121 19.0824 46.7323 19.1656 47.0761 19.3941C47.4198 19.6226 47.6592 19.9778 47.7419 20.3821C47.8246 20.7865 47.744 21.2072 47.5176 21.5523C47.2912 21.8975 46.9375 22.139 46.5336 22.2242C45.6298 22.4094 44.7425 22.6675 43.8803 22.9959C43.7027 23.0638 43.5142 23.0986 43.3241 23.0988ZM55.187 22.6019C55.0407 22.6019 54.8952 22.5813 54.7547 22.5408C53.8677 22.2864 52.9616 22.1039 52.0452 21.9953C51.8414 21.9711 51.6444 21.9071 51.4654 21.8068C51.2863 21.7065 51.1288 21.5719 51.0018 21.4108C50.8748 21.2496 50.7808 21.065 50.7251 20.8675C50.6695 20.67 50.6532 20.4635 50.6774 20.2597C50.7015 20.056 50.7656 19.859 50.8659 19.6799C50.9662 19.5009 51.1007 19.3434 51.2619 19.2164C51.423 19.0894 51.6076 18.9954 51.8051 18.9397C52.0026 18.884 52.2092 18.8678 52.4129 18.892C53.4968 19.0202 54.5685 19.2357 55.6176 19.5365C55.9798 19.6402 56.2923 19.8713 56.4977 20.1872C56.703 20.5031 56.7872 20.8825 56.7349 21.2556C56.6826 21.6287 56.4972 21.9703 56.213 22.2176C55.9287 22.4648 55.5647 22.6011 55.1879 22.6011L55.187 22.6019Z" fill="#8690FA"/>
<path d="M45.3125 45.3125V32.8125L57.8125 39.0625L45.3125 45.3125Z" fill="white"/>
<path d="M42.1875 81.25H39.0625C38.6481 81.25 38.2507 81.4146 37.9576 81.7076C37.6646 82.0007 37.5 82.3981 37.5 82.8125C37.5 83.2269 37.6646 83.6243 37.9576 83.9174C38.2507 84.2104 38.6481 84.375 39.0625 84.375H40.4393C39.9994 86.1752 38.8307 87.5 37.5 87.5C35.8061 87.5 34.375 85.3533 34.375 82.8125C34.375 80.2717 35.8061 78.125 37.5 78.125C37.8104 78.1265 38.1165 78.197 38.3963 78.3314C38.7711 78.5081 39.2008 78.5287 39.5908 78.3886C39.9808 78.2484 40.2992 77.9591 40.4759 77.5843C40.6526 77.2094 40.6731 76.7797 40.533 76.3897C40.3929 75.9997 40.1036 75.6814 39.7287 75.5047C39.0325 75.1731 38.2712 75.0007 37.5 75C34.0537 75 31.25 78.5047 31.25 82.8125C31.25 87.1203 34.0537 90.625 37.5 90.625C40.9463 90.625 43.75 87.1203 43.75 82.8125C43.75 82.3981 43.5854 82.0007 43.2924 81.7076C42.9993 81.4146 42.6019 81.25 42.1875 81.25Z" fill="white"/>
<path d="M54.6875 78.125C55.1019 78.125 55.4993 77.9604 55.7924 77.6674C56.0854 77.3743 56.25 76.9769 56.25 76.5625C56.25 76.1481 56.0854 75.7507 55.7924 75.4576C55.4993 75.1646 55.1019 75 54.6875 75H48.4375C48.0231 75 47.6257 75.1646 47.3326 75.4576C47.0396 75.7507 46.875 76.1481 46.875 76.5625C46.875 76.9769 47.0396 77.3743 47.3326 77.6674C47.6257 77.9604 48.0231 78.125 48.4375 78.125H50V87.5H48.4375C48.0231 87.5 47.6257 87.6646 47.3326 87.9576C47.0396 88.2507 46.875 88.6481 46.875 89.0625C46.875 89.4769 47.0396 89.8743 47.3326 90.1674C47.6257 90.4604 48.0231 90.625 48.4375 90.625H54.6875C55.1019 90.625 55.4993 90.4604 55.7924 90.1674C56.0854 89.8743 56.25 89.4769 56.25 89.0625C56.25 88.6481 56.0854 88.2507 55.7924 87.9576C55.4993 87.6646 55.1019 87.5 54.6875 87.5H53.125V78.125H54.6875Z" fill="white"/>
<path d="M67.1875 75H60.9375C60.5231 75 60.1257 75.1646 59.8326 75.4576C59.5396 75.7507 59.375 76.1481 59.375 76.5625V89.0625C59.375 89.4769 59.5396 89.8743 59.8326 90.1674C60.1257 90.4604 60.5231 90.625 60.9375 90.625C61.3519 90.625 61.7493 90.4604 62.0424 90.1674C62.3354 89.8743 62.5 89.4769 62.5 89.0625V84.375H64.0625C64.4769 84.375 64.8743 84.2104 65.1674 83.9174C65.4604 83.6243 65.625 83.2269 65.625 82.8125C65.625 82.3981 65.4604 82.0007 65.1674 81.7076C64.8743 81.4146 64.4769 81.25 64.0625 81.25H62.5V78.125H67.1875C67.6019 78.125 67.9993 77.9604 68.2924 77.6674C68.5854 77.3743 68.75 76.9769 68.75 76.5625C68.75 76.1481 68.5854 75.7507 68.2924 75.4576C67.9993 75.1646 67.6019 75 67.1875 75Z" fill="white"/>
</svg>
