<svg width="100" height="100" viewBox="0 0 100 100" fill="none" xmlns="http://www.w3.org/2000/svg">
<g clip-path="url(#clip0_80_392)">
<path d="M71.0536 9.11888C71.0536 14.1535 74.8443 18.2351 79.5237 18.2351C84.2003 18.2351 87.9941 18.2351 87.9941 18.2351L71.0532 0.00195312L71.0536 9.11888Z" fill="black"/>
<path d="M12.0063 11.0506V88.9509C12.0063 95.0552 16.9537 99.9999 23.0543 99.9999H76.9451C83.0477 99.9999 87.9941 95.0536 87.9941 88.9509V20.445H78.3936C73.0934 20.445 68.7939 15.869 68.7939 10.2216C68.7939 4.57857 68.7939 0.000244141 68.7939 0.000244141H23.056C16.9537 0.00159101 12.0063 4.94997 12.0063 11.0506ZM44.8399 85.6541C44.8399 86.2259 44.3752 86.6895 43.8041 86.6895H41.4084C40.8363 86.6895 40.3727 86.2259 40.3727 85.6541V81.0704C40.3727 80.5003 40.1188 80.4232 39.8087 80.901L37.8375 83.9385C37.5281 84.4197 37.2587 84.8086 37.2362 84.8086C37.216 84.8086 36.9486 84.418 36.6338 83.9385L34.6687 80.901C34.3522 80.4232 34.102 80.4966 34.102 81.0704V85.6541C34.102 86.2259 33.6363 86.6895 33.0646 86.6895H30.7675C30.1904 86.6895 29.7284 86.2259 29.7284 85.6541V74.2997C29.7284 73.728 30.1907 73.2623 30.7675 73.2623H33.3723C33.9434 73.2623 34.6488 73.6583 34.9485 74.1482L36.7442 77.0965C37.0422 77.5847 37.5281 77.5847 37.8278 77.0965L39.6245 74.1482C39.9208 73.6583 40.6279 73.2623 41.199 73.2623H43.8055C44.3776 73.2623 44.8412 73.728 44.8412 74.2997V85.6541H44.8399ZM57.9802 80.2141C57.6856 80.8367 57.2691 81.3576 56.7354 81.7799C56.1966 82.1997 55.5532 82.5156 54.8037 82.7267C54.0575 82.9375 53.2308 83.0456 52.3244 83.0456C52.3244 83.0456 51.9941 83.0456 51.5904 83.0456C51.1893 83.0456 50.8658 83.5096 50.8658 84.0813V85.6541C50.8658 86.2259 50.3994 86.6895 49.8283 86.6895H47.411C46.84 86.6895 46.377 86.2259 46.377 85.6541V74.2997C46.377 73.728 46.84 73.2623 47.411 73.2623H52.421C53.3147 73.2623 54.1306 73.362 54.8629 73.5589C55.5973 73.7559 56.2266 74.0559 56.7529 74.4533C57.2762 74.8509 57.6859 75.3459 57.9819 75.9489C58.2732 76.5507 58.4196 77.2463 58.4196 78.0396C58.418 78.8821 58.2718 79.5969 57.9802 80.2141ZM69.8333 84.3985C69.5404 84.9544 69.141 85.4238 68.6339 85.8073C68.1282 86.1912 67.546 86.4821 66.88 86.6791C66.2136 86.8781 65.5095 86.9791 64.7667 86.9791C63.3717 86.9791 62.1791 86.7663 61.1804 86.3444C60.5073 86.0602 59.8938 85.6976 59.3372 85.2565C58.8944 84.9009 58.8978 84.2278 59.2954 83.8183L60.5177 82.5614C60.9137 82.1499 61.5393 82.1169 61.9632 82.422C62.2299 82.6119 62.502 82.7705 62.772 82.9031C63.2983 83.1523 63.8428 83.2762 64.4041 83.2762C64.9011 83.2762 65.2826 83.1786 65.5462 82.9799C65.8059 82.7809 65.9385 82.523 65.9385 82.2021C65.9385 81.8304 65.7954 81.5708 65.5062 81.3775C65.2203 81.1839 64.7775 81.0879 64.1778 81.0879C64.1778 81.0879 63.7522 81.0879 63.2293 81.0879C62.703 81.0879 62.1468 80.6434 61.9828 80.0943V80.0872C61.8137 79.538 62.0471 78.8056 62.4939 78.4501L63.826 77.3968C64.2721 77.0429 64.1711 76.7537 63.599 76.7537H60.6841C60.114 76.7537 59.652 76.2897 59.652 75.718V74.3004C59.652 73.7286 60.114 73.263 60.6841 73.263H68.9346C69.5047 73.263 69.9667 73.7286 69.9667 74.3004V75.3152C69.9667 75.887 69.6003 76.6298 69.142 76.9753L67.7854 77.9935C67.3288 78.3353 67.409 78.7221 67.9336 78.9558C68.5019 79.2067 68.9814 79.5313 69.372 79.9286C69.9768 80.5357 70.2768 81.3724 70.2768 82.4328C70.2758 83.1954 70.1293 83.8406 69.8333 84.3985ZM36.9415 50.1063C38.7359 49.7255 40.4939 49.8117 42.0478 50.2703V31.2829C42.0478 29.9804 42.958 28.8558 44.2314 28.5864L67.2002 23.7394C67.2002 23.7394 67.2019 23.7394 67.2073 23.7394C67.2911 23.7175 67.3851 23.7175 67.476 23.7088C67.5736 23.6983 67.6713 23.6781 67.7652 23.6781H67.7689C67.807 23.6781 67.8457 23.6869 67.8841 23.6929C68.0268 23.6966 68.1699 23.7051 68.3077 23.7313C68.3949 23.7515 68.4767 23.7818 68.5605 23.8064C68.6444 23.8334 68.7349 23.8499 68.8188 23.8876C68.9144 23.9249 68.9983 23.9781 69.0872 24.0263C69.1535 24.062 69.2232 24.0926 69.2878 24.1351C69.3663 24.1909 69.4346 24.2512 69.5074 24.3139C69.5717 24.366 69.64 24.4142 69.6973 24.4745C69.7602 24.5337 69.8141 24.6071 69.87 24.6768C69.9276 24.7428 69.9902 24.8048 70.0411 24.8782C70.0986 24.9664 70.1441 25.0587 70.1963 25.1503C70.2276 25.2139 70.2694 25.2752 70.2973 25.3449C70.3603 25.4846 70.4037 25.6345 70.4404 25.7843C70.4441 25.8102 70.4596 25.8355 70.4684 25.8644V25.8661C70.4859 25.9621 70.4892 26.0641 70.4997 26.1644C70.5067 26.2517 70.5243 26.3429 70.5243 26.4267V26.4318V51.6097C70.5243 51.7687 70.5064 51.9269 70.4822 52.0875C70.4192 55.6355 67.3578 58.9606 63.0199 59.8812C58.1119 60.9203 53.4426 58.4932 52.582 54.457C51.7251 50.4171 55.0064 46.2997 59.9126 45.2552C61.705 44.8771 63.4626 44.9623 65.0142 45.4182V29.8306L47.5575 33.5129V56.4568C47.5575 56.6171 47.54 56.7773 47.5131 56.9342C47.4521 60.4826 44.387 63.8073 40.0481 64.7279C35.1435 65.767 30.4715 63.3436 29.6146 59.3054C28.7533 55.2672 32.0389 51.1488 36.9415 50.1063Z" fill="black"/>
<path d="M52.0903 76.8486C52.0903 76.8486 51.8176 76.8486 51.4778 76.8486C51.1368 76.8486 50.864 77.316 50.864 77.8861V78.8083C50.864 79.3784 51.1317 79.8441 51.4637 79.8441H52.0708C52.6479 79.8441 53.1126 79.7185 53.4648 79.471C53.8116 79.2181 53.9911 78.8521 53.9911 78.3659C53.9911 77.8426 53.8274 77.4763 53.4941 77.2254C53.1577 76.9746 52.69 76.8486 52.0903 76.8486Z" fill="black"/>
</g>
<defs>
<clipPath id="clip0_80_392">
<rect width="100" height="100" fill="white"/>
</clipPath>
</defs>
</svg>
