<svg width="100" height="100" viewBox="0 0 100 100" fill="none" xmlns="http://www.w3.org/2000/svg">
<path d="M66.0447 0H14.2197C12.7768 0 11.6072 1.16964 11.6072 3.43929V98.2143C11.6072 98.8304 12.7768 100 14.2197 100H85.7804C87.2232 100 88.3929 98.8304 88.3929 98.2143V23.175C88.3929 21.9321 88.2268 21.5321 87.934 21.2375L67.1554 0.458929C66.8607 0.166071 66.4607 0 66.0447 0Z" fill="#E9E9E0"/>
<path d="M66.9644 0.269531V21.4285H88.1233L66.9644 0.269531Z" fill="#D9D7CA"/>
<path d="M34.8465 59.5071C34.225 59.5071 33.6286 59.3053 33.1197 58.925C31.2607 57.5303 31.0107 55.9785 31.1286 54.9214C31.4536 52.0143 35.0482 48.9714 41.8161 45.8714C44.5018 39.9857 47.0572 32.7339 48.5804 26.675C46.7982 22.7964 45.0661 17.7643 46.3286 14.8125C46.7715 13.7786 47.3232 12.9857 48.3536 12.6428C48.7607 12.5071 49.7893 12.3357 50.1679 12.3357C51.0679 12.3357 51.8589 13.4946 52.4197 14.2089C52.9464 14.8803 54.1411 16.3035 51.7536 26.3553C54.1607 31.3268 57.5714 36.391 60.8393 39.8589C63.1804 39.4357 65.1947 39.2196 66.8357 39.2196C69.6322 39.2196 71.3268 39.8714 72.0179 41.2143C72.5893 42.325 72.3554 43.6232 71.3214 45.0714C70.3268 46.4625 68.9554 47.1982 67.3572 47.1982C65.1857 47.1982 62.6572 45.8268 59.8375 43.1178C54.7714 44.1768 48.8554 46.0661 44.0732 48.1571C42.5804 51.325 41.15 53.8768 39.8179 55.7482C37.9875 58.3107 36.409 59.5071 34.8465 59.5071ZM39.6 50.3536C35.784 52.4982 34.2286 54.2607 34.1161 55.2536C34.0982 55.4178 34.05 55.85 34.8857 56.4893C35.1518 56.4053 36.7054 55.6964 39.6 50.3536ZM63.9518 42.4214C65.4072 43.541 65.7625 44.1071 66.7143 44.1071C67.1322 44.1071 68.3232 44.0893 68.875 43.3196C69.1411 42.9464 69.2447 42.7071 69.2857 42.5786C69.0661 42.4625 68.775 42.2268 67.1875 42.2268C66.2857 42.2285 65.1518 42.2678 63.9518 42.4214ZM50.6125 30.6678C49.3357 35.0857 47.65 39.8553 45.8375 44.175C49.5697 42.7268 53.6268 41.4625 57.4375 40.5678C55.0268 37.7678 52.6179 34.2714 50.6125 30.6678ZM49.5286 15.5571C49.3536 15.6161 47.1536 18.6946 49.7 21.3C51.3947 17.5232 49.6054 15.5321 49.5286 15.5571Z" fill="#CC4B4C"/>
<path d="M85.7804 100H14.2197C12.7768 100 11.6072 98.8303 11.6072 97.3875V69.6428H88.3929V97.3875C88.3929 98.8303 87.2232 100 85.7804 100Z" fill="#CC4B4C"/>
<path d="M31.0446 94.6428H28.1143V76.6499H33.2893C34.0535 76.6499 34.8107 76.7713 35.5589 77.016C36.3071 77.2606 36.9785 77.6267 37.5732 78.1142C38.1678 78.6017 38.6482 79.1928 39.0143 79.8838C39.3803 80.5749 39.5643 81.3517 39.5643 82.216C39.5643 83.1285 39.4089 83.9535 39.1 84.6945C38.791 85.4356 38.3589 86.0588 37.8053 86.5624C37.2518 87.066 36.5839 87.457 35.8035 87.7338C35.0232 88.0106 34.1589 88.1481 33.216 88.1481H31.0428L31.0446 94.6428ZM31.0446 78.8713V85.9999H33.7303C34.0875 85.9999 34.441 85.9392 34.7928 85.816C35.1428 85.6945 35.4643 85.4945 35.7571 85.2178C36.05 84.941 36.2857 84.5553 36.4643 84.0588C36.6428 83.5624 36.7321 82.9481 36.7321 82.216C36.7321 81.9231 36.691 81.5838 36.6107 81.2035C36.5285 80.8213 36.3625 80.4553 36.1107 80.1053C35.8571 79.7553 35.5035 79.4624 35.0482 79.2267C34.5928 78.991 33.9893 78.8731 33.241 78.8731L31.0446 78.8713Z" fill="white"/>
<path d="M57.5339 85.1463C57.5339 86.6267 57.3749 87.8928 57.0571 88.9428C56.7392 89.9928 56.3374 90.8713 55.8482 91.5803C55.3589 92.2892 54.8107 92.8463 54.1999 93.2535C53.5892 93.6606 52.9999 93.9642 52.4303 94.1695C51.8607 94.3731 51.3392 94.5035 50.8678 94.5606C50.3964 94.6142 50.0464 94.6428 49.8178 94.6428H43.0071V76.6499H48.4267C49.941 76.6499 51.2714 76.891 52.4178 77.3695C53.5642 77.8481 54.5178 78.4892 55.2749 79.2856C56.0321 80.082 56.5964 80.991 56.9714 82.007C57.3464 83.0249 57.5339 84.0713 57.5339 85.1463ZM48.8428 92.4945C50.8285 92.4945 52.2607 91.8606 53.1392 90.591C54.0178 89.3213 54.4571 87.482 54.4571 85.0731C54.4571 84.3249 54.3678 83.5838 54.1892 82.8517C54.0089 82.1195 53.6642 81.457 53.1517 80.8624C52.6392 80.2678 51.9428 79.7874 51.0642 79.4213C50.1857 79.0553 49.0464 78.8713 47.6464 78.8713H45.9374V92.4945H48.8428Z" fill="white"/>
<path d="M64.7608 78.8713V84.5356H72.2804V86.5374H64.7608V94.6428H61.7822V76.6499H73.0358V78.8713H64.7608Z" fill="white"/>
</svg>
