<svg width="100" height="100" viewBox="0 0 100 100" fill="none" xmlns="http://www.w3.org/2000/svg">
<path d="M50.0007 85.1555C69.417 85.1555 85.157 69.4155 85.157 49.9993C85.157 30.583 69.417 14.843 50.0007 14.843C30.5845 14.843 14.8445 30.583 14.8445 49.9993C14.8445 69.4155 30.5845 85.1555 50.0007 85.1555Z" fill="#F24646"/>
<path d="M42.5312 65.8227L67.3655 51.4845C67.6259 51.3339 67.842 51.1174 67.9923 50.8569C68.1426 50.5963 68.2217 50.3009 68.2217 50.0001C68.2217 49.6993 68.1426 49.4038 67.9923 49.1433C67.842 48.8827 67.6259 48.6663 67.3655 48.5157L42.5312 34.1759C42.2703 34.0265 41.9749 33.9482 41.6743 33.9487C41.3738 33.9492 41.0786 34.0286 40.8183 34.1788C40.5579 34.329 40.3415 34.5448 40.1907 34.8048C40.0398 35.0647 39.9598 35.3597 39.9585 35.6602V64.3376C39.9596 64.6382 40.0396 64.9333 40.1904 65.1933C40.3412 65.4534 40.5576 65.6693 40.8179 65.8196C41.0783 65.9699 41.3735 66.0493 41.6741 66.0499C41.9748 66.0504 42.2703 65.9721 42.5312 65.8227Z" fill="#FFFCEE"/>
</svg>
