<svg width="192" height="192" viewBox="0 0 192 192" fill="none" xmlns="http://www.w3.org/2000/svg">
<rect width="191" height="191" transform="translate(0.152344 0.151367)" fill="white"/>
<path d="M51.7921 148.532C51.207 149.223 51.2916 150.259 51.9961 150.828C64.9178 161.263 81.1356 166.796 97.7754 166.41C114.415 166.025 130.359 159.747 142.784 148.725C143.461 148.124 143.498 147.085 142.882 146.422V146.422C142.265 145.759 141.229 145.723 140.551 146.323C128.714 156.799 113.537 162.765 97.6994 163.132C81.8616 163.499 66.4248 158.242 54.1158 148.325C53.4107 147.757 52.3773 147.841 51.7921 148.532V148.532Z" fill="url(#paint0_linear_1419_367)"/>
<path d="M79.9478 29.4547C79.7341 28.5748 78.8469 28.0329 77.9722 28.2671C69.1277 30.6351 60.8258 34.7101 53.5365 40.2681C45.8123 46.1577 39.3929 53.5846 34.6835 62.08C29.9741 70.5754 27.0769 79.9548 26.1748 89.6262C25.3235 98.7532 26.2664 107.953 28.9446 116.709C29.2094 117.575 30.1391 118.04 30.9986 117.755V117.755C31.8581 117.47 32.3218 116.543 32.0579 115.676C29.5218 107.351 28.6305 98.6064 29.4397 89.9308C30.2997 80.7106 33.0617 71.7688 37.5514 63.6698C42.0411 55.5708 48.161 48.4905 55.5247 42.8757C62.4536 37.5925 70.3423 33.7148 78.7464 31.4544C79.6208 31.2192 80.1615 30.3347 79.9478 29.4547V29.4547Z" fill="url(#paint1_linear_1419_367)"/>
<path d="M160.985 118.678C161.84 118.975 162.776 118.523 163.054 117.661C165.971 108.586 167.013 99.0063 166.111 89.5051C165.156 79.4595 162.049 69.7373 157.002 60.9996C151.954 52.2619 145.084 44.7136 136.859 38.8682C129.079 33.3396 120.26 29.4568 110.941 27.4504C110.056 27.2598 109.197 27.845 109.027 28.7344V28.7344C108.857 29.6238 109.441 30.4805 110.326 30.6721C119.182 32.5896 127.564 36.2852 134.959 41.5411C142.801 47.1138 149.35 54.3098 154.163 62.6398C158.975 70.9698 161.936 80.2384 162.846 89.8153C163.705 98.8477 162.719 107.955 159.955 116.585C159.679 117.447 160.13 118.381 160.985 118.678V118.678Z" fill="url(#paint2_linear_1419_367)"/>
<path fillRule="evenodd" clip-rule="evenodd" d="M95.7171 25.8271C98.475 25.8271 100.711 23.5914 100.711 20.8335C100.711 18.0756 98.475 15.8398 95.7171 15.8398C92.9592 15.8398 90.7235 18.0756 90.7235 20.8335C90.7235 23.5914 92.9592 25.8271 95.7171 25.8271ZM105.671 32.3972C105.261 29.5067 100.96 27.2323 95.7157 27.2323C90.4713 27.2323 86.1705 29.5067 85.7605 32.3972H85.7168V37.0037H105.678V33.9639C105.703 33.6404 105.703 33.2712 105.703 32.8502C105.703 32.7156 105.695 32.5821 105.678 32.4499V32.3972H105.671Z" fill="#F7AC41"/>
<path fillRule="evenodd" clip-rule="evenodd" d="M153.328 129.799C156.1 129.799 158.348 127.552 158.348 124.78C158.348 122.007 156.1 119.76 153.328 119.76C150.556 119.76 148.308 122.007 148.308 124.78C148.308 127.552 150.556 129.799 153.328 129.799ZM163.334 136.404C162.922 133.498 158.599 131.212 153.327 131.212C148.055 131.212 143.732 133.498 143.319 136.404H143.275V141.034H163.341V137.979C163.366 137.653 163.366 137.282 163.366 136.859C163.366 136.724 163.358 136.59 163.341 136.457V136.404H163.334Z" fill="#E627E4"/>
<path fillRule="evenodd" clip-rule="evenodd" d="M38.4847 129.124C41.2426 129.124 43.4783 126.888 43.4783 124.13C43.4783 121.372 41.2426 119.137 38.4847 119.137C35.7268 119.137 33.4911 121.372 33.4911 124.13C33.4911 126.888 35.7268 129.124 38.4847 129.124ZM48.4386 135.694C48.0285 132.804 43.7277 130.529 38.4833 130.529C33.2389 130.529 28.9381 132.804 28.528 135.694H28.4844V140.301H48.4456V137.261C48.4706 136.937 48.4706 136.568 48.4706 136.147C48.4706 136.012 48.4621 135.879 48.4456 135.747V135.694H48.4386Z" fill="#01C3FF"/>
<path d="M100.708 78.6759C116.383 78.0588 125.856 95.6985 128.633 104.595C125.856 100.018 116.846 91.1111 103.023 92.0985C85.7429 93.3328 78.8001 108.452 75.5602 112.31C72.3203 116.167 71.7031 115.704 71.086 114.778C70.4688 113.852 81.1143 79.4473 100.708 78.6759Z" fill="url(#paint3_linear_1419_367)"/>
<path d="M68.7727 128.2C58.4049 126.472 62.8071 110.714 66.3042 103.052C65.5842 106.703 65.471 114.098 70.7783 114.469C77.4125 114.932 80.8067 103.669 91.2979 103.669C99.6909 103.669 102.098 115.497 102.252 121.411C90.2179 111.074 81.7324 130.36 68.7727 128.2Z" fill="url(#paint4_linear_1419_367)"/>
<path d="M117.527 109.378C115.367 97.8071 103.591 93.5386 97.0078 93.1786C103.642 88.8587 122.199 90.7794 128.636 104.596C133.647 115.352 123.184 122.595 116.447 125.115C117.167 124.704 119.706 121.049 117.527 109.378Z" fill="url(#paint5_linear_1419_367)"/>
<path d="M99.7831 79.1393C111.879 77.2879 124.62 96.574 128.58 104.597C125.186 83.3057 105.8 63.4025 95.6175 63.8653C85.4349 64.3282 68.9266 95.1847 66.1495 103.516C63.3724 111.847 69.3895 115.859 72.0123 114.47C74.6351 113.082 84.6634 81.4536 99.7831 79.1393Z" fill="url(#paint6_linear_1419_367)"/>
<path d="M94.7797 71.8784C92.3725 72.6152 90.6943 74.375 88.978 76.0602C88.0514 76.969 87.2152 77.9691 86.3367 78.9267C84.5828 80.833 83.1536 82.9858 81.6759 85.1016C80.1517 87.0516 78.6333 89.0048 77.0949 90.9426C76.7664 91.3552 76.2163 91.7353 75.8428 91.9478C75.8965 91.9996 75.7861 91.8988 75.8428 91.9478C77.4197 88.8134 79.5026 86.0053 81.4712 83.1226C81.7993 82.6427 82.1073 82.1503 82.4239 81.664C82.494 81.5905 82.564 81.5169 82.6341 81.4433C82.7499 81.2396 82.8688 81.0331 82.9847 80.8295C84.5245 78.9327 86.0644 77.0331 87.6012 75.1362C89.7858 72.5867 92.2254 70.3426 95.2062 68.7423C97.6929 68.2311 99.1621 68.9475 100.268 71.244C100.431 71.584 100.771 71.9891 100.518 72.3254C100.21 72.7299 99.8281 72.3057 99.487 72.1876C97.9468 71.6472 96.4202 70.8964 94.7797 71.8784Z" fill="#B94147"/>
<defs>
<linearGradient id="paint0_linear_1419_367" x1="157.01" y1="131.291" x2="43.4574" y2="151.404" gradientUnits="userSpaceOnUse">
<stop stop-color="#8A2D89"/>
<stop offset="1" stop-color="#F026EE"/>
</linearGradient>
<linearGradient id="paint1_linear_1419_367" x1="96.148" y1="25.876" x2="96.148" y2="166.43" gradientUnits="userSpaceOnUse">
<stop stop-color="#0077FF"/>
<stop offset="0.82126" stop-color="#00D9FF"/>
</linearGradient>
<linearGradient id="paint2_linear_1419_367" x1="147.29" y1="113.088" x2="38.3179" y2="118.127" gradientUnits="userSpaceOnUse">
<stop stop-color="#F7AC41"/>
<stop offset="1" stop-color="#FF9601"/>
</linearGradient>
<linearGradient id="paint3_linear_1419_367" x1="99.847" y1="78.6602" x2="83.4317" y2="109.25" gradientUnits="userSpaceOnUse">
<stop stop-color="#8A2D89"/>
<stop offset="1" stop-color="#F026EE"/>
</linearGradient>
<linearGradient id="paint4_linear_1419_367" x1="82.2832" y1="103.052" x2="82.2832" y2="128.37" gradientUnits="userSpaceOnUse">
<stop stop-color="#0077FF"/>
<stop offset="0.82126" stop-color="#00D9FF"/>
</linearGradient>
<linearGradient id="paint5_linear_1419_367" x1="113.479" y1="91.1279" x2="113.479" y2="125.115" gradientUnits="userSpaceOnUse">
<stop stop-color="#0077FF"/>
<stop offset="0.82126" stop-color="#00D9FF"/>
</linearGradient>
<linearGradient id="paint6_linear_1419_367" x1="74.0309" y1="95.4294" x2="122.932" y2="98.2358" gradientUnits="userSpaceOnUse">
<stop stop-color="#F7AC41"/>
<stop offset="1" stop-color="#FF9601"/>
</linearGradient>
</defs>
</svg>
